<!-- Generated by IcoMoon.io -->
<svg version="1.1" xmlns="http://www.w3.org/2000/svg" width="32" height="32" viewBox="0 0 32 32">
<path fill="#fff" style="fill: var(--color1, #fff)" opacity="0.6" d="M32 16c0 8.837-7.163 16-16 16s-16-7.163-16-16c0-8.837 7.163-16 16-16s16 7.163 16 16z"></path>
<path fill="#fff" style="fill: var(--color1, #fff)" opacity="0.7" d="M29.714 16c0 7.574-6.14 13.714-13.714 13.714s-13.714-6.14-13.714-13.714c0-7.574 6.14-13.714 13.714-13.714s13.714 6.14 13.714 13.714z"></path>
<path fill="#fff" style="fill: var(--color1, #fff)" d="M27.429 16c0 6.312-5.117 11.429-11.429 11.429s-11.429-5.117-11.429-11.429c0-6.312 5.117-11.429 11.429-11.429s11.429 5.117 11.429 11.429z"></path>
<path fill="#5956e9" style="fill: var(--color2, #5956e9)" d="M11.886 12.34c0-0.251 0.203-0.454 0.454-0.454h7.321c0.25 0 0.454 0.203 0.454 0.454v7.321c0 0.12-0.048 0.236-0.133 0.321s-0.201 0.133-0.321 0.133h-7.321c-0.12 0-0.236-0.048-0.321-0.133s-0.133-0.201-0.133-0.321v-7.321zM15.37 14.361c-0.028-0.018-0.059-0.029-0.093-0.031s-0.066 0.006-0.095 0.021c-0.029 0.016-0.054 0.039-0.071 0.067s-0.026 0.061-0.026 0.094v2.974c0 0.033 0.009 0.066 0.026 0.094s0.041 0.052 0.071 0.067c0.029 0.016 0.062 0.023 0.095 0.021s0.065-0.012 0.093-0.031l2.23-1.487c0.025-0.017 0.046-0.039 0.060-0.066s0.022-0.056 0.022-0.086c0-0.030-0.007-0.060-0.022-0.086s-0.035-0.049-0.060-0.066l-2.23-1.487z"></path>
</svg>
