<!-- Generated by IcoMoon.io -->
<svg version="1.1" xmlns="http://www.w3.org/2000/svg" width="32" height="32" viewBox="0 0 32 32">
<title>icon-circle</title>
<path d="M31.889 16.124c-0.124-0.124-0.201-0.128-0.357-0.019-0.097 0.068-0.119 0.134-0.119 0.36 0 0.152-0.024 0.541-0.054 0.864-0.531 5.75-4.084 10.631-9.389 12.895-1.014 0.433-2.518 0.866-3.477 1.001-0.535 0.076-0.68 0.155-0.68 0.373 0 0.258 0.156 0.295 0.805 0.186 2.738-0.458 5.268-1.596 7.462-3.357 0.566-0.455 1.643-1.515 2.145-2.111 2.062-2.452 3.359-5.512 3.662-8.64 0.113-1.17 0.114-1.439 0.001-1.551zM31.804 13.622c-0.826-5.175-4.020-9.567-8.642-11.885-1.568-0.787-3.212-1.294-5.029-1.553-0.633-0.090-1.883-0.154-1.983-0.102-0.137 0.072-0.17 0.249-0.073 0.397 0.073 0.111 0.127 0.131 0.364 0.131 0.153 0 0.543 0.024 0.865 0.054 6.622 0.611 12.030 5.233 13.645 11.663 0.102 0.405 0.214 0.941 0.249 1.19 0.077 0.546 0.156 0.693 0.372 0.693 0.234 0 0.299-0.165 0.232-0.587zM15.917 31.554c-0.069-0.099-0.134-0.119-0.387-0.119-0.409-0.001-1.665-0.137-2.238-0.242-5.175-0.952-9.425-4.354-11.494-9.2-0.433-1.014-0.866-2.518-1.001-3.477-0.076-0.535-0.155-0.68-0.373-0.68-0.258 0-0.295 0.156-0.186 0.805 1.042 6.235 5.631 11.252 11.754 12.85 1.029 0.269 1.927 0.4 3.411 0.5 0.336 0.023 0.404 0.012 0.493-0.078 0.126-0.126 0.13-0.203 0.021-0.359zM14.107 0.235c-0.165-0.137-1.824 0.19-3.094 0.61-4.786 1.582-8.531 5.285-10.143 10.030-0.484 1.426-0.786 3.062-0.822 4.453-0.015 0.564-0.011 0.582 0.136 0.649 0.105 0.048 0.158 0.042 0.267-0.029 0.119-0.078 0.136-0.126 0.136-0.394 0.001-0.451 0.142-1.7 0.265-2.351 1.207-6.36 6.221-11.294 12.576-12.375 0.331-0.056 0.637-0.132 0.68-0.168 0.102-0.085 0.101-0.34-0.001-0.425z"></path>
</svg>
