<!-- Generated by IcoMoon.io -->
<svg version="1.1" xmlns="http://www.w3.org/2000/svg" width="32" height="32" viewBox="0 0 32 32">
<title>icon-browser</title>
<path d="M14.125 16h0.938v-0.937c0-0.517-0.42-0.938-0.938-0.938s-0.937 0.42-0.937 0.938c0 0.517 0.42 0.937 0.937 0.937z"></path>
<path d="M15.063 17.875c-0.189 0-3.001 0-2.813 0-0.517 0-0.937 0.42-0.937 0.937v0.938h3.75v-1.875z"></path>
<path d="M18.812 15.063c0-0.517-0.42-0.938-0.937-0.938s-0.938 0.42-0.938 0.938v0.937h0.938c0.517 0 0.937-0.42 0.937-0.937z"></path>
<path d="M15.063 21.625h-1.875v3.75h5.625v-3.75h-1.875v0.937c0 0.518-0.419 0.938-0.937 0.938s-0.937-0.419-0.937-0.938v-0.937z"></path>
<path d="M0 28.188c0 1.551 1.262 2.812 2.813 2.812h26.375c1.551 0 2.812-1.262 2.812-2.812v-17.813h-32v17.813zM9.438 18.812c0-1.296 0.886-2.38 2.082-2.704-0.131-0.324-0.207-0.676-0.207-1.046 0-1.551 1.262-2.813 2.812-2.813 0.723 0 1.376 0.282 1.875 0.731 0.499-0.45 1.152-0.731 1.875-0.731 1.551 0 2.812 1.262 2.812 2.813 0 0.37-0.076 0.722-0.207 1.046 1.195 0.324 2.082 1.408 2.082 2.704v1.875c0 0.518-0.419 0.938-0.937 0.938h-0.938v4.688c0 0.518-0.419 0.937-0.937 0.937h-7.5c-0.518 0-0.937-0.419-0.937-0.937v-4.688h-0.938c-0.518 0-0.937-0.419-0.937-0.938v-1.875z"></path>
<path d="M20.688 18.812c0-0.517-0.42-0.937-0.937-0.937-0.189 0-3.001 0-2.813 0v1.875h3.75v-0.938z"></path>
<path d="M29.188 1h-26.375c-1.551 0-2.813 1.262-2.813 2.813v4.687h32v-4.687c0-1.551-1.262-2.813-2.812-2.813zM4.686 6.625c-0.518 0-0.938-0.42-0.938-0.938s0.42-0.938 0.938-0.938c0.518 0 0.938 0.42 0.938 0.938s-0.42 0.938-0.938 0.938zM8.498 6.625c-0.518 0-0.938-0.42-0.938-0.938s0.42-0.938 0.938-0.938c0.518 0 0.937 0.42 0.937 0.938s-0.42 0.938-0.937 0.938zM12.248 6.625c-0.518 0-0.938-0.42-0.938-0.938s0.42-0.938 0.938-0.938c0.518 0 0.937 0.42 0.937 0.938s-0.42 0.938-0.937 0.938zM27.313 6.625h-5.688c-0.518 0-0.938-0.419-0.938-0.938s0.419-0.938 0.938-0.938h5.688c0.518 0 0.937 0.419 0.937 0.938s-0.419 0.938-0.937 0.938z"></path>
</svg>
