<!-- Generated by IcoMoon.io -->
<svg version="1.1" xmlns="http://www.w3.org/2000/svg" width="32" height="32" viewBox="0 0 32 32">
<title>icon-like</title>
<path d="M2.667 12h4v16h-4c-0.354 0-0.693-0.141-0.943-0.391s-0.391-0.589-0.391-0.943v-13.333c0-0.354 0.14-0.693 0.391-0.943s0.589-0.39 0.943-0.39zM9.724 10.276l8.533-8.533c0.113-0.114 0.264-0.183 0.424-0.194s0.319 0.035 0.448 0.132l1.137 0.853c0.316 0.237 0.554 0.562 0.686 0.935s0.149 0.776 0.052 1.158l-1.537 6.040h8.533c0.707 0 1.386 0.281 1.886 0.781s0.781 1.178 0.781 1.886v2.805c0 0.349-0.068 0.694-0.2 1.016l-4.127 10.020c-0.101 0.244-0.272 0.453-0.491 0.6s-0.478 0.225-0.742 0.225h-14.44c-0.354 0-0.693-0.141-0.943-0.391s-0.391-0.589-0.391-0.943v-15.448c0-0.354 0.141-0.693 0.391-0.943z"></path>
</svg>
