<!-- Generated by IcoMoon.io -->
<svg version="1.1" xmlns="http://www.w3.org/2000/svg" width="32" height="32" viewBox="0 0 32 32">
<title>icon-telemarketer</title>
<path d="M9.84 14.256c1.465 3.234 4.603 4.642 6.16 4.642 1.024 0 2.731-0.609 4.197-1.945-0.536 0.037-1.109 0.056-1.721 0.056-0.144 0-0.294-0.001-0.455-0.004-0.309 0.238-0.691 0.372-1.087 0.372h-1.304c-0.983 0-1.782-0.8-1.782-1.782s0.8-1.782 1.782-1.782h1.304c0.471 0 0.912 0.184 1.239 0.5 0.109 0.001 0.216 0.002 0.321 0.002 1.684 0 2.793-0.154 3.519-0.341-0.094-0.229-0.145-0.48-0.145-0.741v-4.519c0-0.47 0.175-0.921 0.476-1.269-0.161-1.253-0.453-2.21-0.889-2.916-0.899-1.455-2.631-2.132-5.453-2.132-2.34 0-3.957 0.486-4.941 1.485-0.763 0.775-1.205 1.88-1.412 3.55 0.308 0.349 0.487 0.805 0.487 1.282v4.519c0 0.376-0.108 0.727-0.294 1.024z"></path>
<path d="M6.633 14.299h1.565c0.589 0 1.067-0.478 1.067-1.067v-4.519c0-0.394-0.214-0.737-0.531-0.922 0.349-3.701 1.777-6.265 7.266-6.265 3.152 0 5.12 0.809 6.192 2.545 0.624 1.010 0.924 2.315 1.065 3.726-0.312 0.186-0.522 0.526-0.522 0.916v4.519c0 0.508 0.355 0.932 0.831 1.040-0.69 0.451-2.117 0.912-5.074 0.912-0.239 0-0.489-0.003-0.749-0.009-0.152-0.293-0.458-0.493-0.81-0.493h-1.304c-0.504 0-0.913 0.409-0.913 0.913s0.409 0.913 0.913 0.913h1.304c0.305 0 0.574-0.15 0.74-0.379 0.275 0.007 0.543 0.011 0.803 0.011 3.332-0 5.451-0.569 6.309-1.697 0.037-0.048 0.070-0.096 0.1-0.143h0.482c0.589 0 1.067-0.478 1.067-1.067v-4.519c0-0.589-0.478-1.067-1.067-1.067h-0.588c-0.166-1.705-0.533-3.156-1.287-4.378-1.359-2.199-3.809-3.268-7.491-3.268s-6.132 1.069-7.491 3.268c-0.755 1.221-1.122 2.673-1.287 4.378h-0.588c-0.589 0-1.067 0.478-1.067 1.067v4.519c0 0.589 0.478 1.067 1.067 1.067z"></path>
<path d="M28.898 27.588c-0.355-2.206-1.085-5.047-2.55-6.056-0.999-0.689-4.485-2.552-5.974-3.347l-0.031-0.017c-0.17-0.091-0.378-0.073-0.53 0.046-0.781 0.613-1.636 1.026-2.541 1.228-0.16 0.036-0.291 0.149-0.349 0.303l-0.922 2.431-0.922-2.431c-0.058-0.153-0.19-0.267-0.35-0.303-0.905-0.201-1.76-0.614-2.542-1.228-0.152-0.119-0.36-0.138-0.53-0.046-1.472 0.787-5.004 2.688-6.001 3.361-1.687 1.136-2.423 5.247-2.554 6.059-0.013 0.081-0.005 0.163 0.022 0.24 0.060 0.17 1.607 4.172 12.877 4.172s12.816-4.002 12.877-4.172c0.027-0.077 0.035-0.16 0.022-0.24zM23.651 25.055h-4.463v-0.94h4.463v0.94z"></path>
</svg>
