<!-- Generated by IcoMoon.io -->
<svg version="1.1" xmlns="http://www.w3.org/2000/svg" width="32" height="32" viewBox="0 0 32 32">
<title>icon-eye-scanner</title>
<path d="M31.871 16.492c-3.597 6.371-9.531 10.175-15.871 10.175s-12.273-3.804-15.871-10.175c-0.172-0.305-0.172-0.677 0-0.983 3.597-6.372 9.531-10.176 15.871-10.176s12.273 3.804 15.871 10.175c0.172 0.305 0.172 0.679 0 0.984zM16 10.667c-2.941 0-5.333 2.392-5.333 5.333s2.392 5.333 5.333 5.333c2.941 0 5.333-2.392 5.333-5.333s-2.392-5.333-5.333-5.333z"></path>
<path d="M30.667 21.333c-0.736 0-1.333 0.597-1.333 1.333v5.333c0 0.735-0.599 1.333-1.333 1.333h-5.333c-0.736 0-1.333 0.597-1.333 1.333s0.597 1.333 1.333 1.333h5.333c2.205 0 4-1.795 4-4v-5.333c0-0.736-0.597-1.333-1.333-1.333z"></path>
<path d="M1.333 21.333c-0.736 0-1.333 0.597-1.333 1.333v5.333c0 2.205 1.795 4 4 4h5.333c0.736 0 1.333-0.597 1.333-1.333s-0.597-1.333-1.333-1.333h-5.333c-0.735 0-1.333-0.599-1.333-1.333v-5.333c0-0.736-0.597-1.333-1.333-1.333z"></path>
<path d="M28 0h-5.333c-0.736 0-1.333 0.597-1.333 1.333s0.597 1.333 1.333 1.333h5.333c0.735 0 1.333 0.599 1.333 1.333v5.333c0 0.736 0.597 1.333 1.333 1.333s1.333-0.597 1.333-1.333v-5.333c0-2.205-1.795-4-4-4z"></path>
<path d="M9.333 0h-5.333c-2.205 0-4 1.795-4 4v5.333c0 0.736 0.597 1.333 1.333 1.333s1.333-0.597 1.333-1.333v-5.333c0-0.735 0.599-1.333 1.333-1.333h5.333c0.736 0 1.333-0.597 1.333-1.333s-0.597-1.333-1.333-1.333z"></path>
</svg>
