<!-- Generated by IcoMoon.io -->
<svg version="1.1" xmlns="http://www.w3.org/2000/svg" width="32" height="32" viewBox="0 0 32 32">
<title>icon-pen</title>
<path d="M31.063 0h-3.813c-0.518 0-0.937 0.419-0.937 0.938v0.938h-7.673c-0.388-1.089-1.419-1.875-2.64-1.875s-2.252 0.786-2.64 1.875h-7.673v-0.938c0-0.518-0.419-0.938-0.938-0.938h-3.813c-0.518 0-0.938 0.419-0.938 0.938v3.75c0 0.518 0.419 0.938 0.938 0.938h3.813c0.518 0 0.938-0.419 0.938-0.938v-0.95h3.85c-3.254 2.033-5.399 5.602-5.655 9.601-1.125 0.368-1.945 1.415-1.945 2.662 0 1.551 1.262 2.812 2.813 2.812s2.813-1.262 2.813-2.812c0-1.196-0.754-2.213-1.809-2.619 0.32-4.458 3.43-8.215 7.757-9.287 0.468 0.905 1.402 1.531 2.489 1.531s2.021-0.626 2.489-1.531c4.327 1.072 7.437 4.829 7.757 9.287-1.055 0.406-1.809 1.423-1.809 2.619 0 1.551 1.262 2.812 2.812 2.812s2.813-1.262 2.813-2.812c0-1.246-0.82-2.293-1.945-2.662-0.256-3.998-2.402-7.556-5.655-9.588h3.85v0.938c0 0.518 0.419 0.938 0.937 0.938h3.813c0.518 0 0.937-0.419 0.937-0.938v-3.75c0-0.518-0.419-0.938-0.937-0.938z"></path>
<path d="M22.378 30.837c-0.49-1.501-1.903-2.65-3.566-2.65h-5.625c-1.663 0-3.075 1.149-3.566 2.65-0.189 0.579 0.303 1.163 0.912 1.163h10.932c0.609 0 1.101-0.584 0.912-1.163z"></path>
<path d="M24.28 19.23l-7.343-11.014v8.894c1.089 0.388 1.875 1.419 1.875 2.64 0 1.551-1.262 2.812-2.812 2.812s-2.812-1.262-2.812-2.812c0-1.221 0.786-2.252 1.875-2.64v-8.894l-7.342 11.014c-0.248 0.372-0.199 0.867 0.117 1.183 1.721 1.721 2.821 3.938 3.246 6.317 0.651-0.264 1.36-0.417 2.105-0.417h5.625c0.745 0 1.453 0.153 2.105 0.417 0.425-2.378 1.525-4.595 3.246-6.316 0.316-0.316 0.365-0.811 0.117-1.183z"></path>
<path d="M16 18.812c-0.517 0-0.937 0.42-0.937 0.938s0.42 0.937 0.937 0.937c0.517 0 0.937-0.42 0.937-0.937s-0.42-0.938-0.937-0.938z"></path>
</svg>
