<?xml version="1.0" encoding="utf-8"?><svg xmlns="http://www.w3.org/2000/svg" xmlns:xlink="http://www.w3.org/1999/xlink"><symbol viewBox="0 0 32 32" id="icon-browser" xmlns="http://www.w3.org/2000/svg"><path d="M14.125 16h.938v-.937a.939.939 0 0 0-1.875 0c0 .517.42.937.937.937zM15.063 17.875H12.25a.938.938 0 0 0-.937.937v.938h3.75v-1.875zM18.812 15.063a.938.938 0 0 0-1.875 0V16h.938c.517 0 .937-.42.937-.937zM15.063 21.625h-1.875v3.75h5.625v-3.75h-1.875v.937a.937.937 0 1 1-1.874 0v-.937z"/><path d="M0 28.188A2.815 2.815 0 0 0 2.813 31h26.375A2.815 2.815 0 0 0 32 28.188V10.375H0v17.813zm9.438-9.376c0-1.296.886-2.38 2.082-2.704a2.783 2.783 0 0 1-.207-1.046 2.816 2.816 0 0 1 2.812-2.813c.723 0 1.376.282 1.875.731a2.79 2.79 0 0 1 1.875-.731 2.815 2.815 0 0 1 2.812 2.813c0 .37-.076.722-.207 1.046a2.81 2.81 0 0 1 2.082 2.704v1.875a.937.937 0 0 1-.937.938h-.938v4.688a.936.936 0 0 1-.937.937h-7.5a.936.936 0 0 1-.937-.937v-4.688h-.938a.937.937 0 0 1-.937-.938v-1.875z"/><path d="M20.688 18.812a.938.938 0 0 0-.937-.937h-2.813v1.875h3.75v-.938zM29.188 1H2.813A2.816 2.816 0 0 0 0 3.813V8.5h32V3.813A2.816 2.816 0 0 0 29.188 1zM4.686 6.625a.938.938 0 1 1 0-1.876.938.938 0 0 1 0 1.876zm3.812 0a.938.938 0 1 1 0-1.876.938.938 0 0 1 0 1.876zm3.75 0a.938.938 0 1 1 0-1.876.938.938 0 0 1 0 1.876zm15.065 0h-5.688a.937.937 0 1 1 0-1.876h5.688c.518 0 .937.419.937.938s-.419.938-.937.938z"/></symbol><symbol viewBox="0 0 32 32" id="icon-burger" xmlns="http://www.w3.org/2000/svg"><path d="M4 5.333h24V8H4V5.333zm0 9.334h24v2.667H4v-2.667zM4 24h24v2.667H4V24z"/></symbol><symbol viewBox="0 0 32 32" id="icon-check" xmlns="http://www.w3.org/2000/svg"><path fill="#5956e9" d="M16 29.333C8.636 29.333 2.667 23.364 2.667 16S8.636 2.667 16 2.667 29.333 8.636 29.333 16 23.364 29.333 16 29.333zm-1.329-8 9.427-9.428-1.885-1.885-7.541 7.543-3.772-3.772-1.885 1.885 5.657 5.657z"/></symbol><symbol viewBox="0 0 32 32" id="icon-circle" xmlns="http://www.w3.org/2000/svg"><path d="M31.889 16.124c-.124-.124-.201-.128-.357-.019-.097.068-.119.134-.119.36 0 .152-.024.541-.054.864-.531 5.75-4.084 10.631-9.389 12.895-1.014.433-2.518.866-3.477 1.001-.535.076-.68.155-.68.373 0 .258.156.295.805.186a16.076 16.076 0 0 0 7.462-3.357c.566-.455 1.643-1.515 2.145-2.111 2.062-2.452 3.359-5.512 3.662-8.64.113-1.17.114-1.439.001-1.551zm-.085-2.502c-.826-5.175-4.02-9.567-8.642-11.885C21.594.95 19.95.443 18.133.184 17.5.094 16.25.03 16.15.082c-.137.072-.17.249-.073.397.073.111.127.131.364.131.153 0 .543.024.865.054 6.622.611 12.03 5.233 13.645 11.663.102.405.214.941.249 1.19.077.546.156.693.372.693.234 0 .299-.165.232-.587zM15.917 31.554c-.069-.099-.134-.119-.387-.119-.409-.001-1.665-.137-2.238-.242-5.175-.952-9.425-4.354-11.494-9.2-.433-1.014-.866-2.518-1.001-3.477-.076-.535-.155-.68-.373-.68-.258 0-.295.156-.186.805a15.986 15.986 0 0 0 11.754 12.85c1.029.269 1.927.4 3.411.5.336.023.404.012.493-.078.126-.126.13-.203.021-.359zM14.107.235c-.165-.137-1.824.19-3.094.61A15.977 15.977 0 0 0 .87 10.875c-.484 1.426-.786 3.062-.822 4.453-.015.564-.011.582.136.649.105.048.158.042.267-.029.119-.078.136-.126.136-.394.001-.451.142-1.7.265-2.351C2.059 6.843 7.073 1.909 13.428.828c.331-.056.637-.132.68-.168.102-.085.101-.34-.001-.425z"/></symbol><symbol viewBox="0 0 24 24" id="icon-close" xmlns="http://www.w3.org/2000/svg"><path d="m12 10.586 4.95-4.95 1.414 1.414-4.95 4.95 4.95 4.95-1.414 1.414-4.95-4.95-4.95 4.95-1.414-1.414 4.95-4.95-4.95-4.95L7.05 5.636l4.95 4.95Z"/></symbol><symbol viewBox="0 0 32 32" id="icon-comment" xmlns="http://www.w3.org/2000/svg"><path d="M26.86 2.156H5.109A4.129 4.129 0 0 0 .985 6.28v13.311a4.128 4.128 0 0 0 4.11 4.124v6.041l8.68-6.04H26.86a4.129 4.129 0 0 0 4.124-4.125V6.28a4.129 4.129 0 0 0-4.124-4.124zm-3.905 15.47H9.014v-1.758h13.941v1.758zm0-3.75H9.014v-1.758h13.941v1.758zm0-3.75H9.014V8.368h13.941v1.758z"/></symbol><symbol viewBox="0 0 32 32" id="icon-copyright" xmlns="http://www.w3.org/2000/svg"><path d="M16 2.667c7.36 0 13.333 5.973 13.333 13.333S23.36 29.333 16 29.333 2.667 23.36 2.667 16 8.64 2.667 16 2.667zm0 2.666C10.107 5.333 5.333 10.106 5.333 16S10.106 26.667 16 26.667c5.893 0 10.667-4.773 10.667-10.667S21.894 5.333 16 5.333zm0 4a6.661 6.661 0 0 1 5.717 3.237l-2.285 1.372a4.006 4.006 0 0 0-5.466-1.386 4 4 0 1 0 5.463 5.502l2.287 1.371a6.663 6.663 0 0 1-7.498 2.999 6.666 6.666 0 0 1-4.887-6.429 6.67 6.67 0 0 1 6.667-6.667z"/></symbol><symbol viewBox="0 0 32 32" id="icon-download" xmlns="http://www.w3.org/2000/svg"><path d="M5.333 25.333h21.333V16h2.667v10.667A1.334 1.334 0 0 1 27.999 28h-24a1.333 1.333 0 0 1-1.334-1.333V16h2.667v9.333zM18.667 12h6.667l-9.333 9.333L6.668 12h6.667V4h5.333v8z"/></symbol><symbol viewBox="0 0 32 32" id="icon-eye-scanner" xmlns="http://www.w3.org/2000/svg"><path d="M31.871 16.492C28.274 22.863 22.34 26.667 16 26.667S3.727 22.863.129 16.492a1 1 0 0 1 0-.983C3.726 9.137 9.66 5.333 16 5.333s12.273 3.804 15.871 10.175c.172.305.172.679 0 .984zM16 10.667c-2.941 0-5.333 2.392-5.333 5.333s2.392 5.333 5.333 5.333c2.941 0 5.333-2.392 5.333-5.333S18.941 10.667 16 10.667zM30.667 21.333c-.736 0-1.333.597-1.333 1.333v5.333c0 .735-.599 1.333-1.333 1.333h-5.333a1.333 1.333 0 0 0 0 2.666h5.333c2.205 0 4-1.795 4-4v-5.333c0-.736-.597-1.333-1.333-1.333zM1.333 21.333C.597 21.333 0 21.93 0 22.666v5.333c0 2.205 1.795 4 4 4h5.333a1.333 1.333 0 0 0 0-2.666H4A1.335 1.335 0 0 1 2.667 28v-5.333c0-.736-.597-1.333-1.333-1.333zM28 0h-5.333a1.333 1.333 0 0 0 0 2.666H28c.735 0 1.333.599 1.333 1.333v5.333a1.333 1.333 0 0 0 2.666 0V3.999c0-2.205-1.795-4-4-4zM9.333 0H4C1.795 0 0 1.795 0 4v5.333a1.333 1.333 0 0 0 2.666 0V4c0-.735.599-1.333 1.333-1.333h5.333a1.333 1.333 0 0 0 0-2.666z"/></symbol><symbol viewBox="0 0 32 32" id="icon-facebook" xmlns="http://www.w3.org/2000/svg"><path d="M18.667 18H22l1.333-5.333h-4.667V10c0-1.373 0-2.667 2.667-2.667h2v-4.48c-.435-.057-2.076-.187-3.809-.187-3.62 0-6.191 2.209-6.191 6.267v3.733h-4v5.333h4v11.333h5.333V17.999z"/></symbol><symbol viewBox="0 0 32 32" id="icon-instagram" xmlns="http://www.w3.org/2000/svg"><path d="M16 2.667c3.623 0 4.075.013 5.496.08 1.42.067 2.387.289 3.237.62a6.51 6.51 0 0 1 2.363 1.537 6.538 6.538 0 0 1 1.537 2.363c.329.849.553 1.817.62 3.237.063 1.421.08 1.873.08 5.496s-.013 4.075-.08 5.496c-.067 1.42-.291 2.387-.62 3.237a6.53 6.53 0 0 1-1.537 2.363 6.55 6.55 0 0 1-2.363 1.537c-.849.329-1.817.553-3.237.62-1.421.063-1.873.08-5.496.08s-4.075-.013-5.496-.08c-1.42-.067-2.387-.291-3.237-.62a6.53 6.53 0 0 1-2.363-1.537 6.53 6.53 0 0 1-1.537-2.363c-.331-.849-.553-1.817-.62-3.237-.063-1.421-.08-1.873-.08-5.496s.013-4.075.08-5.496c.067-1.421.289-2.387.62-3.237a6.516 6.516 0 0 1 1.537-2.363 6.53 6.53 0 0 1 2.363-1.537c.851-.331 1.816-.553 3.237-.62 1.421-.063 1.873-.08 5.496-.08zm0 6.666a6.67 6.67 0 0 0-4.714 11.381 6.67 6.67 0 0 0 9.428 0A6.668 6.668 0 0 0 16 9.333zM24.667 9a1.667 1.667 0 1 0-3.334 0 1.667 1.667 0 0 0 3.334 0zM16 12a4.003 4.003 0 0 1 4 4 4.003 4.003 0 0 1-4 4 4.003 4.003 0 0 1-4-4 4.003 4.003 0 0 1 4-4z"/></symbol><symbol viewBox="0 0 32 32" id="icon-like" xmlns="http://www.w3.org/2000/svg"><path d="M2.667 12h4v16h-4a1.334 1.334 0 0 1-1.334-1.334V13.333A1.33 1.33 0 0 1 2.667 12zm7.057-1.724 8.533-8.533a.661.661 0 0 1 .872-.062l1.137.853a2.002 2.002 0 0 1 .738 2.093l-1.537 6.04H28a2.668 2.668 0 0 1 2.667 2.667v2.805c0 .349-.068.694-.2 1.016l-4.127 10.02a1.332 1.332 0 0 1-1.233.825h-14.44a1.334 1.334 0 0 1-1.334-1.334V11.218c0-.354.141-.693.391-.943z"/></symbol><symbol viewBox="0 0 32 32" id="icon-mail" xmlns="http://www.w3.org/2000/svg"><path d="M4 4h24a1.335 1.335 0 0 1 1.334 1.334v21.333A1.334 1.334 0 0 1 28 28.001H4a1.334 1.334 0 0 1-1.334-1.334V5.334A1.335 1.335 0 0 1 4 4zm12.08 11.577-8.549-7.26-1.727 2.032 10.293 8.74 10.108-8.747-1.744-2.017-8.381 7.252z"/></symbol><symbol viewBox="0 0 32 32" id="icon-pen" xmlns="http://www.w3.org/2000/svg"><path d="M31.063 0H27.25a.937.937 0 0 0-.937.938v.938H18.64C18.252.787 17.221.001 16 .001s-2.252.786-2.64 1.875H5.687V.938A.937.937 0 0 0 4.749 0H.936a.937.937 0 0 0-.938.938v3.75c0 .518.419.938.938.938h3.813a.937.937 0 0 0 .938-.938v-.95h3.85C6.283 5.771 4.138 9.34 3.882 13.339a2.806 2.806 0 0 0-1.945 2.662c0 1.551 1.262 2.812 2.813 2.812s2.813-1.262 2.813-2.812a2.81 2.81 0 0 0-1.809-2.619c.32-4.458 3.43-8.215 7.757-9.287C13.979 5 14.913 5.626 16 5.626S18.021 5 18.489 4.095c4.327 1.072 7.437 4.829 7.757 9.287a2.81 2.81 0 0 0-1.809 2.619c0 1.551 1.262 2.812 2.812 2.812s2.813-1.262 2.813-2.812c0-1.246-.82-2.293-1.945-2.662-.256-3.998-2.402-7.556-5.655-9.588h3.85v.938c0 .518.419.938.937.938h3.813a.937.937 0 0 0 .937-.938V.939a.937.937 0 0 0-.937-.938zM22.378 30.837c-.49-1.501-1.903-2.65-3.566-2.65h-5.625c-1.663 0-3.075 1.149-3.566 2.65-.189.579.303 1.163.912 1.163h10.932c.609 0 1.101-.584.912-1.163z"/><path d="M24.28 19.23 16.937 8.216v8.894a2.807 2.807 0 0 1 1.875 2.64c0 1.551-1.262 2.812-2.812 2.812s-2.812-1.262-2.812-2.812c0-1.221.786-2.252 1.875-2.64V8.216L7.721 19.23a.937.937 0 0 0 .117 1.183c1.721 1.721 2.821 3.938 3.246 6.317a5.588 5.588 0 0 1 2.105-.417h5.625c.745 0 1.453.153 2.105.417.425-2.378 1.525-4.595 3.246-6.316a.937.937 0 0 0 .117-1.183z"/><path d="M16 18.812a.938.938 0 1 0 .002 1.876.938.938 0 0 0-.002-1.876z"/></symbol><symbol viewBox="0 0 32 32" id="icon-phone" xmlns="http://www.w3.org/2000/svg"><path d="M28 21.893v4.715a1.335 1.335 0 0 1-1.24 1.331c-.583.04-1.059.061-1.427.061C13.55 28 4 18.449 4 6.667c0-.368.02-.844.061-1.427A1.334 1.334 0 0 1 5.392 4h4.715a.67.67 0 0 1 .664.6c.031.307.059.551.085.736a18.53 18.53 0 0 0 1.611 5.335.607.607 0 0 1-.196.756l-2.877 2.056a17.395 17.395 0 0 0 9.125 9.125l2.053-2.872a.62.62 0 0 1 .764-.199 18.551 18.551 0 0 0 5.333 1.607c.185.027.429.056.733.085a.665.665 0 0 1 .598.664h-.001z"/></symbol><symbol viewBox="0 0 32 32" id="icon-play" xmlns="http://www.w3.org/2000/svg"><path fill="#fff" style="fill:var(--color1, #fff)" opacity=".6" d="M32 16c0 8.837-7.163 16-16 16S0 24.837 0 16 7.163 0 16 0s16 7.163 16 16z"/><path fill="#fff" style="fill:var(--color1, #fff)" opacity=".7" d="M29.714 16c0 7.574-6.14 13.714-13.714 13.714S2.286 23.574 2.286 16C2.286 8.426 8.426 2.286 16 2.286S29.714 8.426 29.714 16z"/><path fill="#fff" style="fill:var(--color1, #fff)" d="M27.429 16c0 6.312-5.117 11.429-11.429 11.429S4.571 22.312 4.571 16 9.688 4.571 16 4.571 27.429 9.688 27.429 16z"/><path fill="#5956e9" style="fill:var(--color2, #5956e9)" d="M11.886 12.34c0-.251.203-.454.454-.454h7.321c.25 0 .454.203.454.454v7.321a.455.455 0 0 1-.454.454H12.34a.455.455 0 0 1-.454-.454V12.34zm3.484 2.021a.182.182 0 0 0-.285.151v2.974a.182.182 0 0 0 .285.151l2.23-1.487a.181.181 0 0 0 .082-.152c0-.03-.007-.06-.022-.086s-.035-.049-.06-.066l-2.23-1.487z"/></symbol><symbol viewBox="0 0 32 32" id="icon-send" xmlns="http://www.w3.org/2000/svg"><path d="M4 17.333h8v-2.667H4V2.461a.676.676 0 0 1 .657-.667.675.675 0 0 1 .332.082l24.616 13.539a.675.675 0 0 1 .345.584.662.662 0 0 1-.345.584L4.989 30.122a.673.673 0 0 1-.661-.01.669.669 0 0 1-.328-.574V17.333z"/></symbol><symbol viewBox="0 0 19 32" id="icon-smartfone" xmlns="http://www.w3.org/2000/svg"><path d="M16.332 0H2.868A2.33 2.33 0 0 0 .539 2.331v27.34A2.328 2.328 0 0 0 2.868 32h13.464a2.33 2.33 0 0 0 2.329-2.329V2.331A2.331 2.331 0 0 0 16.332 0zM6.278 1.416h6.647c.168 0 .304.251.304.561s-.136.562-.304.562H6.278c-.169 0-.303-.252-.303-.562s.134-.561.303-.561zm3.323 28.283a1.487 1.487 0 0 1 0-2.974 1.486 1.486 0 0 1 0 2.974zm7.315-5.094H2.285V3.934h14.631v20.671z"/></symbol><symbol viewBox="0 0 32 32" id="icon-star" xmlns="http://www.w3.org/2000/svg"><path d="M16 24.346 6.596 29.61l2.1-10.571-7.913-7.317 10.703-1.269L16.001.666l4.515 9.787 10.703 1.269-7.913 7.317 2.1 10.571-9.404-5.264z"/></symbol><symbol viewBox="0 0 32 32" id="icon-telemarketer" xmlns="http://www.w3.org/2000/svg"><path d="M9.84 14.256c1.465 3.234 4.603 4.642 6.16 4.642 1.024 0 2.731-.609 4.197-1.945a25.032 25.032 0 0 1-2.176.052 1.784 1.784 0 0 1-1.087.372H15.63c-.983 0-1.782-.8-1.782-1.782s.8-1.782 1.782-1.782h1.304c.471 0 .912.184 1.239.5l.321.002c1.684 0 2.793-.154 3.519-.341a1.95 1.95 0 0 1-.145-.741V8.714c0-.47.175-.921.476-1.269-.161-1.253-.453-2.21-.889-2.916-.899-1.455-2.631-2.132-5.453-2.132-2.34 0-3.957.486-4.941 1.485-.763.775-1.205 1.88-1.412 3.55.308.349.487.805.487 1.282v4.519c0 .376-.108.727-.294 1.024z"/><path d="M6.633 14.299h1.565c.589 0 1.067-.478 1.067-1.067V8.713c0-.394-.214-.737-.531-.922C9.083 4.09 10.511 1.526 16 1.526c3.152 0 5.12.809 6.192 2.545.624 1.01.924 2.315 1.065 3.726a1.065 1.065 0 0 0-.522.916v4.519c0 .508.355.932.831 1.04-.69.451-2.117.912-5.074.912-.239 0-.489-.003-.749-.009a.912.912 0 0 0-.81-.493h-1.304a.913.913 0 0 0 0 1.826h1.304c.305 0 .574-.15.74-.379.275.007.543.011.803.011 3.332 0 5.451-.569 6.309-1.697.037-.048.07-.096.1-.143h.482c.589 0 1.067-.478 1.067-1.067V8.714c0-.589-.478-1.067-1.067-1.067h-.588c-.166-1.705-.533-3.156-1.287-4.378C22.133 1.07 19.683.001 16.001.001S9.869 1.07 8.51 3.269C7.755 4.49 7.388 5.942 7.223 7.647h-.588c-.589 0-1.067.478-1.067 1.067v4.519c0 .589.478 1.067 1.067 1.067zM28.898 27.588c-.355-2.206-1.085-5.047-2.55-6.056-.999-.689-4.485-2.552-5.974-3.347l-.031-.017a.487.487 0 0 0-.53.046 6.339 6.339 0 0 1-2.541 1.228.486.486 0 0 0-.349.303l-.922 2.431-.922-2.431a.49.49 0 0 0-.35-.303 6.323 6.323 0 0 1-2.542-1.228.485.485 0 0 0-.53-.046c-1.472.787-5.004 2.688-6.001 3.361-1.687 1.136-2.423 5.247-2.554 6.059a.49.49 0 0 0 .022.24c.06.17 1.607 4.172 12.877 4.172s12.816-4.002 12.877-4.172a.49.49 0 0 0 .022-.24zm-5.247-2.533h-4.463v-.94h4.463v.94z"/></symbol><symbol viewBox="0 0 32 32" id="icon-twitter" xmlns="http://www.w3.org/2000/svg"><path d="M29.549 7.541c-1.018.45-2.097.746-3.203.877a5.593 5.593 0 0 0 2.453-3.085 11.118 11.118 0 0 1-3.541 1.353 5.58 5.58 0 0 0-6.705-1.109 5.577 5.577 0 0 0-2.796 6.194A15.826 15.826 0 0 1 4.264 5.944a5.557 5.557 0 0 0-.755 2.804c0 1.933.984 3.641 2.48 4.641a5.562 5.562 0 0 1-2.525-.697v.069a5.58 5.58 0 0 0 4.473 5.468 5.617 5.617 0 0 1-2.52.096 5.58 5.58 0 0 0 5.209 3.873 11.198 11.198 0 0 1-8.254 2.309 15.783 15.783 0 0 0 8.547 2.507c10.257 0 15.867-8.497 15.867-15.867 0-.24-.007-.483-.017-.72a11.334 11.334 0 0 0 2.783-2.887l-.001-.001z"/></symbol><symbol viewBox="0 0 32 32" id="icon-youtube" xmlns="http://www.w3.org/2000/svg"><path d="M28.724 8.664c.609 2.376.609 7.336.609 7.336s0 4.96-.609 7.336c-.339 1.313-1.329 2.347-2.584 2.696-2.279.635-10.14.635-10.14.635s-7.857 0-10.14-.635c-1.26-.355-2.249-1.387-2.584-2.696C2.667 20.96 2.667 16 2.667 16s0-4.96.609-7.336c.339-1.313 1.329-2.347 2.584-2.696C8.143 5.333 16 5.333 16 5.333s7.861 0 10.14.635c1.26.355 2.249 1.387 2.584 2.696zM13.333 20.667l8-4.667-8-4.667v9.333z"/></symbol></svg>